<svg width="33" height="32" viewBox="0 0 33 32" fill="none" xmlns="http://www.w3.org/2000/svg">
<g clip-path="url(#clip0)">
<path d="M14.9419 2C7.20121 1.99688 0.931641 8.25313 0.931641 15.975C0.931641 22.0813 4.85364 27.2719 10.3156 29.1781C11.0512 29.3625 10.9385 28.8406 10.9385 28.4844V26.0625C6.69101 26.5594 6.51885 23.7531 6.23401 23.2844C5.65808 22.3031 4.29649 22.0531 4.7034 21.5844C5.6706 21.0875 6.65657 21.7094 7.79906 23.3938C8.6254 24.6156 10.2374 24.4094 11.0543 24.2063C11.2328 23.4719 11.6146 22.8156 12.1405 22.3062C7.73959 21.5187 5.90535 18.8375 5.90535 15.65C5.90535 14.1031 6.41556 12.6813 7.41719 11.5344C6.77865 9.64375 7.47666 8.025 7.57056 7.78438C9.38914 7.62188 11.2797 9.08438 11.4268 9.2C12.4598 8.92188 13.6398 8.775 14.9607 8.775C16.2879 8.775 17.471 8.92813 18.5134 9.20938C18.8671 8.94063 20.6199 7.68438 22.3102 7.8375C22.4009 8.07813 23.0833 9.65938 22.4823 11.525C23.4965 12.675 24.0129 14.1094 24.0129 15.6594C24.0129 18.8531 22.1662 21.5375 17.7527 22.3125C18.1308 22.6837 18.4309 23.1263 18.6357 23.6146C18.8404 24.1028 18.9457 24.6269 18.9453 25.1562V28.6719C18.9703 28.9531 18.9453 29.2313 19.4148 29.2313C24.9582 27.3656 28.9491 22.1375 28.9491 15.9781C28.9491 8.25313 22.6764 2 14.9419 2Z" fill="black"/>
</g>
<defs>
<clipPath id="clip0">
<rect x="0.931641" width="32.0521" height="32" fill="white"/>
</clipPath>
</defs>
</svg>
