<svg width="24" height="24" viewBox="0 0 24 24" fill="none" xmlns="http://www.w3.org/2000/svg">
<path d="M21.2528 10.4258L18.7865 10.1827C18.6274 9.58939 18.3904 9.01973 18.0819 8.48856L19.6565 6.57024C19.7379 6.4708 19.7793 6.34468 19.7729 6.21637C19.7665 6.08806 19.7126 5.96672 19.6217 5.87592L18.1241 4.3776C18.0333 4.28651 17.9119 4.23254 17.7834 4.22624C17.655 4.21994 17.5288 4.26175 17.4296 4.34352L15.5112 5.9184C14.98 5.60987 14.4102 5.37294 13.8168 5.21376L13.5742 2.74704C13.5616 2.61913 13.5018 2.50049 13.4066 2.41417C13.3114 2.32786 13.1874 2.28003 13.0589 2.28H10.9414C10.8129 2.28008 10.6889 2.32791 10.5937 2.41422C10.4984 2.50052 10.4386 2.61913 10.4259 2.74704L10.1832 5.21448C9.59021 5.37341 9.02092 5.61036 8.49027 5.91912L6.57075 4.34376C6.47475 4.2648 6.35859 4.22616 6.24219 4.22616C6.10899 4.22616 5.97699 4.27704 5.87619 4.37808L4.37859 5.87592C4.28771 5.96672 4.23382 6.08806 4.22739 6.21637C4.22096 6.34468 4.26244 6.4708 4.34379 6.57024L5.91963 8.48928C5.61084 9.02017 5.37389 9.58971 5.21499 10.183L2.74755 10.4261C2.61956 10.4384 2.50074 10.4979 2.41429 10.5931C2.32785 10.6883 2.27998 10.8123 2.28003 10.9409V13.0589C2.28003 13.3253 2.48235 13.5485 2.74731 13.5739L5.21475 13.817C5.37359 14.4101 5.61054 14.9794 5.91939 15.51L4.34451 17.4286C4.26246 17.5277 4.22042 17.6539 4.22663 17.7825C4.23285 17.911 4.28687 18.0326 4.37811 18.1234L5.87571 19.6214C5.96654 19.7124 6.088 19.7663 6.21641 19.7726C6.34482 19.7789 6.47097 19.7372 6.57027 19.6555L8.48859 18.0806C9.01983 18.3894 9.58957 18.6265 10.183 18.7858L10.4256 21.2527C10.4383 21.3807 10.498 21.4993 10.5933 21.5857C10.6886 21.672 10.8126 21.7198 10.9412 21.7198H13.0587C13.3251 21.7198 13.548 21.5177 13.5742 21.2527L13.8168 18.786C14.4104 18.6271 14.9802 18.3899 15.5112 18.0806L17.4296 19.6555C17.5289 19.7371 17.655 19.7788 17.7834 19.7725C17.9118 19.7662 18.0333 19.7124 18.1241 19.6214L19.6217 18.1234C19.7129 18.0326 19.767 17.911 19.7732 17.7825C19.7794 17.6539 19.7374 17.5277 19.6553 17.4286L18.0816 15.5107C18.3902 14.9797 18.6271 14.4102 18.7863 13.817L21.2525 13.5739C21.3804 13.5614 21.4991 13.5017 21.5855 13.4065C21.6719 13.3113 21.7197 13.1874 21.7198 13.0589V10.9409C21.7198 10.8124 21.672 10.6884 21.5857 10.5932C21.4993 10.498 21.3807 10.4384 21.2528 10.4258ZM12.0005 14.868C10.4158 14.868 9.13179 13.5838 9.13179 12C9.13179 10.4155 10.416 9.13176 12.0005 9.13176C13.584 9.13176 14.868 10.4155 14.868 12C14.8683 13.5838 13.584 14.868 12.0005 14.868Z" fill="black"/>
</svg>
